# Blender 3.6.0
# www.blender.org
mtllib hall.mtl
o world_root-node
v 0.187500 0.300049 -0.574951
v 0.375000 0.300049 -0.574951
v 0.187500 0.800049 -0.574951
v 0.375000 0.800049 -0.574951
v -0.375000 0.800049 -0.574951
v -0.375000 0.300049 -0.574951
v -0.187500 0.800049 -0.574951
v -0.187500 0.300049 -0.574951
v 0.375000 0.300049 -0.574951
v 0.562500 0.300049 -0.574951
v 0.375000 0.800049 -0.574951
v 0.562500 0.800049 -0.574951
v 0.562500 0.300049 -0.574951
v 0.750000 0.300049 -0.574951
v 0.562500 0.800049 -0.574951
v 0.750000 0.800049 -0.574951
v -0.562500 0.800049 -0.574951
v -0.562500 0.300049 -0.574951
v -0.375000 0.800049 -0.574951
v -0.375000 0.300049 -0.574951
v -0.562500 0.300049 -0.574951
v -0.562500 0.800049 -0.574951
v -0.750000 0.300049 -0.574951
v -0.750000 0.800049 -0.574951
v 0.187500 0.800049 -0.574951
v 0.000000 0.800049 -0.574951
v 0.187500 0.300049 -0.574951
v 0.000000 0.300049 -0.574951
v -0.187500 0.300049 -0.574951
v -0.187500 0.800049 -0.574951
v 0.258057 0.608154 -0.762451
v 0.245117 0.594971 -0.762451
v 0.258057 0.479004 -0.762451
v 0.245117 0.350098 -0.762451
v 0.258057 0.350098 -0.762451
v 0.258057 0.220947 -0.762451
v 0.323730 0.290527 -0.762451
v 0.298828 0.230957 -0.762451
v -0.258057 0.091797 -0.762451
v -0.245117 0.104980 -0.762451
v -0.258057 0.220947 -0.762451
v -0.245117 0.350098 -0.762451
v -0.258057 0.350098 -0.762451
v -0.258057 0.479004 -0.762451
v -0.323730 0.409424 -0.762451
v -0.304932 0.468994 -0.762451
v -0.297607 0.052490 -0.762451
v -0.267822 0.044922 -0.762451
v -0.258057 0.091797 -0.762451
v -0.178467 0.057617 -0.762451
v -0.129150 0.091797 -0.762451
v -0.118896 0.057617 -0.762451
v -0.059570 0.044922 -0.762451
v 0.297607 0.647461 -0.762451
v 0.267822 0.655029 -0.762451
v 0.258057 0.608154 -0.762451
v 0.178467 0.642578 -0.762451
v 0.129150 0.608154 -0.762451
v 0.118896 0.641846 -0.762451
v 0.059570 0.655029 -0.762451
v -0.323730 0.112060 -0.762451
v -0.304932 0.171387 -0.762451
v -0.298828 0.230957 -0.762451
v -0.323730 0.290527 -0.762451
v 0.323730 0.587891 -0.762451
v 0.304932 0.528564 -0.762451
v 0.298828 0.468994 -0.762451
v 0.323730 0.409424 -0.762451
v -0.245117 0.104980 -0.762451
v 0.000000 0.104980 -0.762451
v -0.245117 0.104980 -0.850098
v 0.245117 0.104980 -0.850098
v 0.245117 0.104980 -0.762451
v 0.129150 0.091797 -0.762451
v 0.258057 0.091797 -0.762451
v 0.178467 0.057617 -0.762451
v 0.118896 0.057617 -0.762451
v 0.000000 0.091797 -0.762451
v 0.059570 0.044922 -0.762451
v 0.000000 0.038818 -0.762451
v -0.245117 0.594971 -0.762451
v 0.000000 0.594971 -0.762451
v -0.129150 0.608154 -0.762451
v 0.000000 0.608154 -0.762451
v -0.059570 0.655029 -0.762451
v 0.000000 0.661133 -0.762451
v -0.245117 0.594971 -0.762451
v -0.258057 0.608154 -0.762451
v -0.311279 0.532959 -0.762451
v -0.245117 0.104980 -0.850098
v -0.245117 0.594971 -0.850098
v 0.245117 0.594971 -0.850098
v 0.245117 0.104980 -0.850098
v 0.245117 0.104980 -0.762451
v 0.258057 0.091797 -0.762451
v 0.304932 0.171387 -0.762451
v 0.297607 0.052490 -0.762451
v 0.317383 0.067383 -0.762451
v 0.323730 0.112060 -0.762451
v -0.297607 0.647461 -0.762451
v -0.317383 0.632568 -0.762451
v -0.323730 0.587891 -0.762451
v -0.297607 0.647461 -0.762451
v -0.258057 0.608154 -0.762451
v -0.267822 0.655029 -0.762451
v -0.178467 0.642578 -0.762451
v -0.297607 0.052490 -0.762451
v -0.317383 0.067383 -0.762451
v 0.245117 0.594971 -0.762451
v 0.000000 0.594971 -0.762451
v 0.245117 0.594971 -0.850098
v -0.245117 0.594971 -0.850098
v 0.330078 0.350098 -0.762451
v 0.297607 0.052490 -0.762451
v 0.267822 0.044922 -0.762451
v 0.312500 0.037598 -0.800049
v 0.332520 0.053223 -0.800049
v 0.297607 0.052490 -0.762451
v 0.317383 0.067383 -0.762451
v -0.312500 0.662598 -0.800049
v -0.332520 0.646973 -0.800049
v -0.297607 0.647461 -0.762451
v -0.317383 0.632568 -0.762451
v 0.245117 0.594971 -0.762451
v 0.297607 0.647461 -0.762451
v 0.317383 0.632568 -0.762451
v 0.317383 0.632568 -0.762451
v 0.332520 0.646973 -0.800049
v 0.297607 0.647461 -0.762451
v 0.312500 0.662598 -0.800049
v -0.317383 0.067383 -0.762451
v -0.332520 0.053223 -0.800049
v -0.297607 0.052490 -0.762451
v -0.312500 0.037598 -0.800049
v -0.118896 0.643066 -0.762451
v -0.330078 0.350098 -0.762451
v -0.245117 0.594971 -0.762451
v -0.323730 0.112060 -0.762451
v -0.338867 0.100098 -0.800049
v -0.338867 0.600098 -0.800049
v -0.323730 0.587891 -0.762451
v -0.323730 0.290527 -0.762451
v -0.313721 0.225098 -0.800049
v -0.298828 0.230957 -0.762451
v -0.320068 0.162598 -0.800049
v -0.304932 0.171387 -0.762451
v -0.330078 0.350098 -0.762451
v -0.338867 0.287598 -0.800049
v -0.344971 0.350098 -0.800049
v -0.323730 0.409424 -0.762451
v -0.338867 0.412598 -0.800049
v -0.326172 0.541992 -0.800049
v -0.311279 0.532959 -0.762451
v -0.320068 0.475098 -0.800049
v -0.304932 0.468994 -0.762451
v 0.323730 0.587891 -0.762451
v 0.338867 0.600098 -0.800049
v 0.338867 0.100098 -0.800049
v 0.323730 0.112060 -0.762451
v 0.323730 0.409424 -0.762451
v 0.313721 0.475098 -0.800049
v 0.298828 0.468994 -0.762451
v 0.320068 0.537598 -0.800049
v 0.304932 0.528564 -0.762451
v 0.330078 0.350098 -0.762451
v 0.338867 0.412598 -0.800049
v 0.344971 0.350098 -0.800049
v 0.323730 0.290527 -0.762451
v 0.338867 0.287598 -0.800049
v 0.320068 0.162598 -0.800049
v 0.304932 0.171387 -0.762451
v 0.313721 0.225098 -0.800049
v 0.298828 0.230957 -0.762451
v -0.312500 0.037598 -0.800049
v -0.281250 0.030029 -0.800049
v -0.297607 0.052490 -0.762451
v -0.267822 0.044922 -0.762451
v 0.297607 0.052490 -0.762451
v 0.267822 0.044922 -0.762451
v 0.312500 0.037598 -0.800049
v 0.281250 0.030029 -0.800049
v -0.062500 0.030029 -0.800049
v -0.118896 0.057617 -0.762451
v -0.125000 0.042480 -0.800049
v -0.178467 0.057617 -0.762451
v -0.187500 0.042480 -0.800049
v 0.000000 0.023682 -0.800049
v -0.059570 0.044922 -0.762451
v 0.000000 0.038818 -0.762451
v 0.062500 0.030029 -0.800049
v 0.059570 0.044922 -0.762451
v 0.178467 0.057617 -0.762451
v 0.187500 0.042480 -0.800049
v 0.118896 0.057617 -0.762451
v 0.125000 0.042480 -0.800049
v -0.297607 0.647461 -0.762451
v -0.267822 0.655029 -0.762451
v -0.312500 0.662598 -0.800049
v -0.281250 0.669922 -0.800049
v 0.312500 0.662598 -0.800049
v 0.281250 0.669922 -0.800049
v 0.297607 0.647461 -0.762451
v 0.267822 0.655029 -0.762451
v -0.059570 0.655029 -0.762451
v -0.125000 0.658203 -0.800049
v -0.118896 0.643066 -0.762451
v -0.187500 0.657471 -0.800049
v -0.178467 0.642578 -0.762451
v 0.000000 0.661133 -0.762451
v -0.062500 0.669922 -0.800049
v 0.000000 0.676269 -0.800049
v 0.059570 0.655029 -0.762451
v 0.062500 0.669922 -0.800049
v 0.187500 0.657471 -0.800049
v 0.178467 0.642578 -0.762451
v 0.125000 0.656982 -0.800049
v 0.118896 0.641846 -0.762451
v 0.250000 0.000000 1.000000
v 0.750000 0.000000 1.000000
v 0.250000 -0.000000 -0.800049
v 0.750000 -0.000000 -0.800049
v -0.750000 -0.000000 -0.800049
v -0.750000 0.000000 1.000000
v -0.250000 -0.000000 -0.800049
v -0.250000 0.000000 1.000000
v -0.750000 0.800049 -0.800049
v 0.750000 0.800049 -0.800049
v -0.750000 0.800049 1.000000
v 0.750000 0.800049 1.000000
v 0.250000 -0.000000 -0.800049
v 0.000000 -0.000000 -0.800049
v 0.250000 0.000000 1.000000
v -0.250000 0.000000 1.000000
v -0.250000 -0.000000 -0.800049
v -0.750000 0.620117 -0.600098
v -0.750000 0.320068 -0.600098
v -0.673584 0.620117 -0.615234
v -0.673584 0.320068 -0.615234
v -0.608643 0.620117 -0.658691
v -0.608643 0.320068 -0.658691
v -0.565185 0.320068 -0.723389
v -0.608643 0.120117 -0.658691
v -0.565185 0.120117 -0.723389
v 0.673584 0.620117 -0.615234
v 0.608643 0.620117 -0.658691
v 0.673584 0.320068 -0.615234
v 0.608643 0.320068 -0.658691
v 0.608643 0.120117 -0.658691
v 0.565185 0.320068 -0.723389
v 0.565185 0.120117 -0.723389
v 0.550049 0.320068 -0.800049
v 0.550049 0.120117 -0.800049
v 0.750000 0.620117 -0.600098
v 0.750000 0.320068 -0.600098
v 0.673584 0.120117 -0.615234
v 0.565185 0.620117 -0.723389
v 0.550049 0.620117 -0.800049
v -0.550049 0.620117 -0.800049
v -0.565185 0.620117 -0.723389
v -0.550049 0.320068 -0.800049
v -0.750000 0.120117 -0.600098
v -0.673584 0.120117 -0.615234
v 0.750000 0.120117 -0.600098
v -0.550049 0.120117 -0.800049
v -0.524902 -0.000000 -0.800049
v -0.524902 0.062500 -0.800049
v -0.542236 -0.000000 -0.713867
v -0.542236 0.062500 -0.713867
v -0.590820 -0.000000 -0.640869
v -0.590820 0.062500 -0.640869
v -0.663818 0.062500 -0.592041
v -0.750000 0.120117 -0.600098
v -0.750000 0.062500 -0.574951
v -0.673584 0.120117 -0.615234
v -0.663818 0.062500 -0.592041
v -0.608643 0.120117 -0.658691
v -0.542236 0.062500 -0.713867
v 0.750000 -0.000000 -0.574951
v 0.750000 0.062500 -0.574951
v 0.663818 -0.000000 -0.592041
v 0.663818 0.062500 -0.592041
v 0.590820 -0.000000 -0.640869
v 0.590820 0.062500 -0.640869
v 0.542236 0.062500 -0.713867
v 0.550049 0.120117 -0.800049
v 0.524902 0.062500 -0.800049
v 0.565185 0.120117 -0.723389
v 0.542236 0.062500 -0.713867
v 0.608643 0.120117 -0.658691
v 0.663818 0.062500 -0.592041
v -0.750000 -0.000000 -0.574951
v -0.663818 -0.000000 -0.592041
v -0.550049 0.120117 -0.800049
v -0.565185 0.120117 -0.723389
v 0.524902 -0.000000 -0.800049
v 0.542236 -0.000000 -0.713867
v 0.750000 0.120117 -0.600098
v 0.673584 0.120117 -0.615234
v 0.750000 0.800049 -0.800049
v 0.250000 0.600098 -0.800049
v 0.750000 -0.000000 -0.800049
v 0.250000 0.100098 -0.800049
v 0.250000 -0.000000 -0.800049
v 0.000000 -0.000000 -0.800049
v -0.250000 -0.000000 -0.800049
v -0.250000 0.100098 -0.800049
v -0.750000 -0.000000 -0.800049
v -0.250000 0.600098 -0.800049
v -0.750000 0.800049 -0.800049
v 0.750000 0.000000 1.000000
v 0.750000 0.800049 1.000000
v 0.750000 -0.000000 -0.800049
v 0.750000 0.800049 -0.800049
v -0.750000 0.000000 1.000000
v -0.750000 -0.000000 -0.800049
v -0.750000 0.800049 1.000000
v -0.750000 0.800049 -0.800049
vn -0.0000 -0.0000 1.0000
vn -0.3015 -0.3015 0.9045
vn -0.7071 -0.0000 0.7071
vn 0.5732 -0.1466 0.8062
vn 0.4841 -0.0759 0.8717
vn 0.3015 0.3015 0.9045
vn 0.7071 -0.0000 0.7071
vn -0.5690 0.1172 0.8139
vn -0.4993 0.0563 0.8646
vn -0.2327 -0.5143 0.8255
vn -0.0112 -0.6027 0.7979
vn 0.0327 -0.5464 0.8369
vn -0.0569 -0.5261 0.8485
vn -0.0888 -0.5656 0.8199
vn 0.2315 0.5135 0.8263
vn 0.0114 0.6027 0.7979
vn -0.0353 0.5503 0.8342
vn 0.0558 0.5237 0.8501
vn 0.0911 0.5661 0.8193
vn -0.6201 0.0827 0.7801
vn -0.5435 0.1005 0.8334
vn -0.4821 -0.0778 0.8727
vn -0.5712 -0.1450 0.8079
vn 0.6205 -0.0833 0.7798
vn 0.5439 -0.1003 0.8331
vn 0.4817 0.0781 0.8729
vn 0.5707 0.1446 0.8084
vn -0.0000 0.7071 0.7071
vn 0.7071 0.7071 -0.0000
vn -0.7071 0.7071 -0.0000
vn -0.3015 0.3015 0.9045
vn -0.0313 -0.5472 0.8364
vn 0.0592 -0.5240 0.8497
vn 0.0861 -0.5644 0.8210
vn -0.0002 -0.5836 0.8120
vn 0.3015 -0.3015 0.9045
vn -0.0000 -0.7071 0.7071
vn -0.0827 0.5636 0.8219
vn 0.0002 0.5836 0.8120
vn -0.5536 -0.0821 0.8287
vn 0.7071 -0.7071 -0.0000
vn -0.7071 -0.7071 -0.0000
vn 0.5420 0.1021 0.8342
vn 0.2336 -0.5125 0.8263
vn 0.5240 -0.2864 0.8021
vn 0.6184 0.0776 0.7820
vn -0.2330 0.5105 0.8277
vn -0.5236 0.2852 0.8028
vn -0.6076 -0.0459 0.7929
vn -0.0075 0.6030 0.7977
vn 0.0286 0.5482 0.8359
vn -0.5227 -0.2872 0.8027
vn 0.5860 -0.0017 0.8103
vn 0.0073 -0.6039 0.7970
vn 0.4016 -0.7869 0.4685
vn 0.7504 -0.4566 0.4779
vn -0.3992 0.7866 0.4711
vn -0.7489 0.4566 0.4802
vn 0.5222 0.2860 0.8034
vn 0.7488 0.4580 0.4790
vn 0.3961 0.7866 0.4736
vn -0.7504 -0.4580 0.4766
vn -0.3998 -0.7869 0.4701
vn -0.0588 0.5271 0.8478
vn -0.5860 0.0018 0.8103
vn -0.9300 0.0395 0.3655
vn -0.9276 -0.0058 0.3736
vn -0.9178 -0.1199 0.3785
vn -0.9240 0.2014 0.3251
vn -0.8995 -0.2211 0.3768
vn -0.9288 0.0026 0.3705
vn -0.9052 0.1827 0.3837
vn -0.9313 -0.1569 0.3287
vn -0.9214 0.0768 0.3810
vn 0.9300 -0.0388 0.3655
vn 0.9301 0.0346 0.3656
vn 0.9177 0.1189 0.3791
vn 0.9243 -0.2018 0.3239
vn 0.8989 0.2215 0.3780
vn 0.9289 -0.0025 0.3704
vn 0.8970 -0.2218 0.3823
vn 0.9249 0.2070 0.3191
vn 0.9173 -0.1154 0.3811
vn -0.0809 -0.9153 0.3945
vn 0.0765 -0.9164 0.3928
vn -0.1419 -0.9151 0.3775
vn -0.0840 -0.9196 0.3838
vn 0.0752 -0.9321 0.3542
vn -0.0002 -0.9276 0.3737
vn 0.1383 -0.9171 0.3738
vn -0.0713 -0.9311 0.3577
vn 0.0879 -0.9204 0.3811
vn -0.0734 0.9173 0.3914
vn 0.0785 0.9151 0.3956
vn -0.0888 0.9202 0.3813
vn 0.0676 0.9328 0.3541
vn -0.1332 0.9179 0.3737
vn 0.0002 0.9276 0.3737
vn 0.1454 0.9145 0.3777
vn -0.0773 0.9339 0.3492
vn 0.0819 0.9203 0.3825
vn -0.0000 1.0000 -0.0000
vn -0.5774 0.5774 0.5774
vn 0.5774 0.5774 0.5774
vn 0.5774 -0.5774 0.5774
vn -0.5774 -0.5774 0.5774
vn 0.1943 -0.0000 0.9809
vn 0.3826 -0.0000 0.9239
vn 0.7065 -0.0000 0.7077
vn 0.9237 -0.0000 0.3832
vn 0.6913 0.2094 0.6916
vn 0.9033 0.2078 0.3753
vn -0.3826 -0.0000 0.9239
vn -0.7065 -0.0000 0.7077
vn -0.6913 0.2094 0.6916
vn -0.9237 -0.0000 0.3832
vn -0.9033 0.2078 0.3753
vn -0.9811 -0.0000 0.1937
vn -0.9601 0.2057 0.1896
vn -0.1943 -0.0000 0.9809
vn -0.3740 0.2098 0.9034
vn 0.9811 -0.0000 0.1937
vn 0.1902 0.2057 0.9600
vn 0.3740 0.2098 0.9034
vn -0.1902 0.2057 0.9600
vn 0.9601 0.2057 0.1896
vn 0.9804 -0.0000 0.1972
vn 0.9618 0.1948 0.1925
vn 0.9238 -0.0000 0.3828
vn 0.9053 0.1979 0.3757
vn 0.7079 -0.0000 0.7063
vn 0.6936 0.1998 0.6921
vn 0.3751 0.1995 0.9053
vn 0.1907 0.1957 0.9619
vn -0.1945 -0.0000 0.9809
vn -0.1907 0.1957 0.9619
vn -0.3751 0.1995 0.9053
vn -0.7079 -0.0000 0.7063
vn -0.6936 0.1998 0.6921
vn -0.9053 0.1979 0.3757
vn -0.9618 0.1948 0.1925
vn 0.1945 -0.0000 0.9809
vn -0.9804 -0.0000 0.1972
vn -0.9238 -0.0000 0.3828
vt 1.000000 1.399902
vt 0.000000 1.399902
vt 1.000000 0.299805
vt 0.000000 0.299805
vt 1.000000 1.200195
vt 0.000000 1.200195
vt 1.000000 0.100098
vt 0.000000 0.100098
vt 1.000000 1.000000
vt 0.000000 1.000000
vt 1.000000 -0.100098
vt 0.000000 -0.100098
vt 0.000000 0.500000
vt 1.000000 0.500000
vt 0.000000 1.600098
vt 1.000000 1.600098
vt 0.781250 0.287109
vt 1.000000 0.128906
vt 0.781250 -1.607422
vt 1.000000 -3.500000
vt 0.781250 -3.500000
vt 0.781250 -5.394531
vt 0.125000 -4.351563
vt 0.125000 -5.203125
vt 0.125000 -7.759766
vt 0.125000 -7.333984
vt 0.781250 -7.287109
vt 0.125000 -6.056641
vt 0.125000 -0.091797
vt 0.125000 -0.945312
vt 0.125000 -1.796875
vt 0.125000 -2.648438
vt 1.000000 -7.128906
vt 0.125000 -3.500000
vt 0.125000 -7.546875
vt 0.125000 -6.908203
vt 0.125000 0.759766
vt 0.125000 0.333984
vt 0.125000 0.546875
vt 0.000000 -8.128906
vt 0.000000 -7.898438
vt 0.000000 0.898438
vt 0.000000 1.128906
vt 0.000000 0.203125
vt 0.000000 -7.203125
vt 0.000000 -1.648438
vt 0.000000 -0.722656
vt 0.000000 -2.574219
vt 0.000000 -3.500000
vt 0.000000 -4.425781
vt 0.000000 -6.277344
vt 0.000000 -5.351563
vt 0.000000 -7.666016
vt 0.000000 0.666016
vt 5.250000 9.000000
vt 7.750000 9.000000
vt 5.250000 0.000000
vt 7.750000 0.000000
vt 0.250000 0.000000
vt 0.250000 9.000000
vt 2.750000 0.000000
vt 2.750000 9.000000
vt -0.500000 0.000000
vt 7.000000 0.000000
vt -0.500000 9.000000
vt 7.000000 9.000000
vt 6.500000 0.000000
vt 4.000000 0.000000
vt 6.500000 9.000000
vt 1.500000 9.000000
vt 1.500000 0.000000
vt 0.000000 0.000000
vt 0.000000 0.600098
vt 0.750000 0.000000
vt 0.750000 0.600098
vt 1.500000 0.600098
vt 2.250000 0.600098
vt 1.500000 1.000000
vt 2.250000 1.000000
vt 3.000000 0.600098
vt 3.000000 1.000000
vt 0.750000 1.000000
vt 2.250000 0.000000
vt 3.000000 0.000000
vt 6.000000 1.000000
vt 6.000000 0.500000
vt 4.500000 1.000000
vt 4.500000 0.500000
vt 3.000000 0.500000
vt 1.500000 0.500000
vt 6.000000 0.000000
vt 4.500000 0.000000
vt 3.750000 0.000000
vt 2.500000 0.250000
vt 3.750000 1.000000
vt 2.500000 0.875000
vt 2.500000 1.000000
vt 1.875000 1.000000
vt 1.250000 1.000000
vt 1.250000 0.875000
vt 1.250000 0.250000
s 1
usemtl curtain.001
f 1/1/1 2/2/1 3/3/1
f 4/4/1 3/3/1 2/2/1
f 5/4/1 6/2/1 7/3/1
f 8/1/1 7/3/1 6/2/1
f 2/5/1 10/6/1 4/7/1
f 12/8/1 4/7/1 10/6/1
f 10/9/1 14/10/1 12/11/1
f 16/12/1 12/11/1 14/10/1
f 17/8/1 18/6/1 5/7/1
f 6/5/1 5/7/1 18/6/1
f 18/9/1 17/11/1 23/10/1
f 24/12/1 23/10/1 17/11/1
f 3/13/1 26/14/1 1/15/1
f 28/16/1 1/15/1 26/14/1
f 28/16/1 26/14/1 8/15/1
f 7/13/1 8/15/1 26/14/1
usemtl frame_mat.001
f 31/17/1 32/18/2 33/19/1
f 34/20/3 33/19/1 32/18/2
f 33/19/1 34/20/3 35/21/1
f 36/22/1 35/21/1 34/20/3
f 35/21/1 36/22/1 37/23/4
f 38/24/5 37/23/4 36/22/1
f 39/17/1 40/18/6 41/19/1
f 42/20/7 41/19/1 40/18/6
f 41/19/1 42/20/7 43/21/1
f 44/22/1 43/21/1 42/20/7
f 43/21/1 44/22/1 45/23/8
f 46/24/9 45/23/8 44/22/1
f 47/25/10 48/26/11 39/27/1
f 50/28/12 39/27/1 48/26/11
f 39/27/1 50/28/12 51/22/1
f 52/24/13 51/22/1 50/28/12
f 51/22/1 52/24/13 53/23/14
f 54/25/15 55/26/16 31/27/1
f 57/28/17 31/27/1 55/26/16
f 31/27/1 57/28/17 58/22/1
f 59/24/18 58/22/1 57/28/17
f 58/22/1 59/24/18 60/23/19
f 61/29/20 39/17/1 62/30/21
f 41/19/1 62/30/21 39/17/1
f 62/30/21 41/19/1 63/31/22
f 64/32/23 63/31/22 41/19/1
f 65/29/24 31/17/1 66/30/25
f 33/19/1 66/30/25 31/17/1
f 66/30/25 33/19/1 67/31/26
f 68/32/27 67/31/26 33/19/1
f 39/27/1 51/22/1 40/33/6
f 70/20/28 40/33/6 51/22/1
f 40/33/6 70/20/28 71/33/29
f 72/18/30 71/33/29 70/20/28
f 72/18/30 70/20/28 73/18/31
f 74/19/1 73/18/31 70/20/28
f 73/18/31 74/19/1 75/17/1
f 76/30/32 75/17/1 74/19/1
f 76/30/32 74/19/1 77/31/33
f 78/21/1 77/31/33 74/19/1
f 77/31/33 78/21/1 79/32/34
f 80/34/35 79/32/34 78/21/1
f 81/18/36 82/20/37 83/19/1
f 84/21/1 83/19/1 82/20/37
f 83/19/1 84/21/1 85/32/38
f 86/34/39 85/32/38 84/21/1
f 42/20/7 81/33/36 44/22/1
f 88/27/1 44/22/1 81/33/36
f 44/22/1 88/27/1 89/28/40
f 40/18/6 71/18/29 42/20/7
f 91/33/41 42/20/7 71/18/29
f 42/20/7 91/33/41 81/33/36
f 32/18/2 92/18/42 34/20/3
f 72/33/30 34/20/3 92/18/42
f 34/20/3 72/33/30 73/33/31
f 34/20/3 73/33/31 36/22/1
f 75/27/1 36/22/1 73/33/31
f 36/22/1 75/27/1 96/28/43
f 97/25/44 98/35/45 75/27/1
f 99/36/46 75/27/1 98/35/45
f 75/27/1 99/36/46 96/28/43
f 74/19/1 70/20/28 78/21/1
f 51/22/1 78/21/1 70/20/28
f 78/21/1 51/22/1 53/23/14
f 100/25/47 101/35/48 88/27/1
f 102/36/49 88/27/1 101/35/48
f 88/27/1 102/36/49 89/28/40
f 82/20/37 58/22/1 84/21/1
f 60/23/19 84/21/1 58/22/1
f 84/21/1 60/23/19 86/34/39
f 100/37/47 88/17/1 105/38/50
f 106/30/51 105/38/50 88/17/1
f 47/37/10 39/17/1 108/39/52
f 61/29/20 108/39/52 39/17/1
f 32/33/2 82/20/37 92/33/42
f 91/18/41 92/33/42 82/20/37
f 33/19/1 35/21/1 68/32/27
f 113/34/53 68/32/27 35/21/1
f 97/37/44 75/17/1 115/38/54
f 76/30/32 115/38/54 75/17/1
f 116/40/55 117/41/56 97/25/44
f 98/35/45 97/25/44 117/41/56
f 120/40/57 121/41/58 100/25/47
f 101/35/48 100/25/47 121/41/58
f 31/27/1 58/22/1 32/33/2
f 82/20/37 32/33/2 58/22/1
f 54/37/15 31/17/1 126/39/59
f 65/29/24 126/39/59 31/17/1
f 126/39/59 128/42/60 54/37/15
f 130/43/61 54/37/15 128/42/60
f 108/39/52 132/42/62 47/37/10
f 134/43/63 47/37/10 132/42/62
f 81/18/36 83/19/1 88/17/1
f 106/30/51 88/17/1 83/19/1
f 85/32/38 135/31/64 83/19/1
f 106/30/51 83/19/1 135/31/64
f 41/19/1 43/21/1 64/32/23
f 136/34/65 64/32/23 43/21/1
f 46/24/9 44/22/1 89/28/40
f 80/34/35 78/21/1 53/23/14
f 91/18/41 82/20/37 81/18/36
f 38/24/5 36/22/1 96/28/43
f 113/34/53 35/21/1 37/23/4
f 136/34/65 43/21/1 45/23/8
f 108/39/52 61/29/20 132/42/62
f 139/44/66 132/42/62 61/29/20
f 121/41/58 140/45/67 101/35/48
f 102/36/49 101/35/48 140/45/67
f 64/32/23 143/46/68 63/31/22
f 145/47/69 63/31/22 143/46/68
f 63/31/22 145/47/69 62/30/21
f 139/44/66 62/30/21 145/47/69
f 62/30/21 139/44/66 61/29/20
f 64/32/23 136/34/65 148/48/70
f 149/49/71 148/48/70 136/34/65
f 136/34/65 45/23/8 149/49/71
f 151/50/72 149/49/71 45/23/8
f 102/36/49 152/51/73 89/28/40
f 154/52/74 89/28/40 152/51/73
f 89/28/40 154/52/74 46/24/9
f 151/50/72 46/24/9 154/52/74
f 46/24/9 151/50/72 45/23/8
f 64/32/23 148/48/70 143/46/68
f 102/36/49 140/45/67 152/51/73
f 126/39/59 65/29/24 128/42/60
f 157/44/75 128/42/60 65/29/24
f 117/41/56 158/45/76 98/35/45
f 99/36/46 98/35/45 158/45/76
f 68/32/27 161/46/77 67/31/26
f 163/47/78 67/31/26 161/46/77
f 67/31/26 163/47/78 66/30/25
f 157/44/75 66/30/25 163/47/78
f 66/30/25 157/44/75 65/29/24
f 68/32/27 113/34/53 166/48/79
f 167/49/80 166/48/79 113/34/53
f 113/34/53 37/23/4 167/49/80
f 169/50/81 167/49/80 37/23/4
f 99/36/46 170/51/82 96/28/43
f 172/52/83 96/28/43 170/51/82
f 96/28/43 172/52/83 38/24/5
f 169/50/81 38/24/5 172/52/83
f 38/24/5 169/50/81 37/23/4
f 68/32/27 166/48/79 161/46/77
f 99/36/46 158/45/76 170/51/82
f 134/40/63 175/53/84 47/25/10
f 48/26/11 47/25/10 175/53/84
f 97/37/44 115/38/54 116/43/55
f 181/54/85 116/43/55 115/38/54
f 182/50/86 52/24/13 184/52/87
f 50/28/12 184/52/87 52/24/13
f 184/52/87 50/28/12 186/51/88
f 48/26/11 186/51/88 50/28/12
f 186/51/88 48/26/11 175/53/84
f 182/50/86 187/49/89 53/23/14
f 80/34/35 53/23/14 187/49/89
f 187/49/89 190/48/90 80/34/35
f 79/32/34 80/34/35 190/48/90
f 181/54/85 76/30/32 193/47/91
f 77/31/33 193/47/91 76/30/32
f 193/47/91 77/31/33 195/46/92
f 79/32/34 195/46/92 77/31/33
f 195/46/92 79/32/34 190/48/90
f 182/50/86 53/23/14 52/24/13
f 181/54/85 115/38/54 76/30/32
f 100/37/47 105/38/50 120/43/57
f 199/54/93 120/43/57 105/38/50
f 130/40/61 201/53/94 54/25/15
f 55/26/16 54/25/15 201/53/94
f 85/32/38 205/46/95 135/31/64
f 207/47/96 135/31/64 205/46/95
f 135/31/64 207/47/96 106/30/51
f 199/54/93 106/30/51 207/47/96
f 106/30/51 199/54/93 105/38/50
f 85/32/38 86/34/39 210/48/97
f 211/49/98 210/48/97 86/34/39
f 86/34/39 60/23/19 211/49/98
f 213/50/99 211/49/98 60/23/19
f 55/26/16 214/51/100 57/28/17
f 216/52/101 57/28/17 214/51/100
f 57/28/17 216/52/101 59/24/18
f 213/50/99 59/24/18 216/52/101
f 59/24/18 213/50/99 60/23/19
f 85/32/38 210/48/97 205/46/95
f 55/26/16 201/53/94 214/51/100
usemtl l_checker.001
f 218/55/102 219/56/30 220/57/28
f 221/58/103 220/57/28 219/56/30
f 222/59/104 223/60/29 224/61/28
f 225/62/102 224/61/28 223/60/29
f 226/63/105 227/64/106 228/65/41
f 229/66/42 228/65/41 227/64/106
usemtl l_jyuutan.001
f 220/67/28 231/68/28 218/69/102
f 225/70/102 218/69/102 231/68/28
f 225/70/102 231/68/28 224/71/28
usemtl l_pole2.001
f 235/72/107 236/73/107 237/74/108
f 238/75/108 237/74/108 236/73/107
f 237/74/108 238/75/108 239/71/109
f 240/76/109 239/71/109 238/75/108
f 239/71/109 240/76/109 241/77/110
f 242/78/111 241/77/110 240/76/109
f 241/77/110 242/78/111 243/79/112
f 244/74/113 245/71/114 246/75/113
f 247/76/114 246/75/113 245/71/114
f 246/75/113 247/76/114 248/78/115
f 249/77/116 248/78/115 247/76/114
f 248/78/115 249/77/116 250/79/117
f 251/80/118 250/79/117 249/77/116
f 250/79/117 251/80/118 252/81/119
f 253/72/120 244/74/113 254/73/120
f 246/75/113 254/73/120 244/74/113
f 254/73/120 246/75/113 255/82/121
f 248/78/115 255/82/121 246/75/113
f 247/76/114 245/71/114 249/77/116
f 256/83/116 249/77/116 245/71/114
f 249/77/116 256/83/116 251/80/118
f 257/84/118 251/80/118 256/83/116
f 258/84/122 259/83/110 260/80/122
f 241/77/110 260/80/122 259/83/110
f 260/80/122 241/77/110 243/79/112
f 261/10/123 262/82/124 236/73/107
f 238/75/108 236/73/107 262/82/124
f 262/82/124 242/78/111 238/75/108
f 240/76/109 238/75/108 242/78/111
f 255/82/121 263/10/125 254/73/120
f 243/79/112 264/81/126 260/80/122
f 239/71/109 241/77/110 259/83/110
usemtl l_pole2_dai.001
f 265/85/127 266/86/128 267/87/129
f 268/88/130 267/87/129 266/86/128
f 267/87/129 268/88/130 269/81/131
f 270/89/132 269/81/131 268/88/130
f 269/81/131 270/89/132 271/90/133
f 261/72/123 273/13/134 262/71/124
f 271/90/133 262/71/124 273/13/134
f 262/71/124 271/90/133 242/84/111
f 270/89/132 242/84/111 271/90/133
f 242/84/111 270/89/132 268/88/130
f 278/10/135 279/13/136 280/78/113
f 281/90/137 280/78/113 279/13/136
f 280/78/113 281/90/137 282/81/138
f 283/89/139 282/81/138 281/90/137
f 282/81/138 283/89/139 284/88/140
f 252/91/119 286/86/141 250/92/117
f 284/88/140 250/92/117 286/86/141
f 250/92/117 284/88/140 248/84/115
f 283/89/139 248/84/115 284/88/140
f 248/84/115 283/89/139 281/90/137
f 291/10/142 292/78/108 273/13/134
f 271/90/133 273/13/134 292/78/108
f 264/91/126 243/92/112 266/86/128
f 268/88/130 266/86/128 243/92/112
f 295/85/143 296/87/144 286/86/141
f 284/88/140 286/86/141 296/87/144
f 263/72/125 255/71/121 279/13/136
f 281/90/137 279/13/136 255/71/121
f 281/90/137 255/71/121 248/84/115
f 284/88/140 296/87/144 282/81/138
f 268/88/130 243/92/112 242/84/111
f 271/90/133 292/78/108 269/81/131
usemtl l_tile02.001
f 227/93/106 300/94/1 221/95/103
f 302/96/1 221/95/103 300/94/1
f 221/95/103 302/96/1 220/97/28
f 231/98/28 220/97/28 302/96/1
f 224/99/28 306/100/1 222/10/104
f 308/101/1 222/10/104 306/100/1
f 222/10/104 308/101/1 226/72/105
f 219/10/30 229/72/42 221/87/103
f 227/92/106 221/87/103 229/72/42
f 223/10/29 222/87/104 228/72/41
f 226/92/105 228/72/41 222/87/104
f 302/96/1 306/100/1 231/98/28
f 224/99/28 231/98/28 306/100/1
f 227/93/106 226/72/105 300/94/1
f 308/101/1 300/94/1 226/72/105
